<svg width="56" height="21" viewBox="0 0 56 21" fill="none" xmlns="http://www.w3.org/2000/svg">
<g clip-path="url(#clip0_160_7372)">
<path fill-rule="evenodd" clip-rule="evenodd" d="M34.7413 16.7539C31.4871 19.1497 26.7702 20.428 22.7091 20.428C17.0148 20.428 11.8884 18.3244 8.01011 14.8256C7.7054 14.5504 7.97842 14.1755 8.34406 14.3897C12.5295 16.8221 17.7046 18.2854 23.0504 18.2854C26.6556 18.2854 30.6217 17.5404 34.2684 15.9943C34.8193 15.7605 35.28 16.3546 34.7413 16.7539Z" fill="#FF9900"/>
<path fill-rule="evenodd" clip-rule="evenodd" d="M36.0942 15.2078C35.6798 14.6771 33.3445 14.9571 32.2963 15.0812C31.977 15.1202 31.9282 14.8426 32.2159 14.643C34.0758 13.3355 37.1277 13.7129 37.4836 14.1511C37.8395 14.5918 37.391 17.6475 35.6432 19.1059C35.3751 19.3299 35.1191 19.2106 35.2386 18.9136C35.631 17.9348 36.511 15.7411 36.0942 15.2078Z" fill="#FF9900"/>
<path fill-rule="evenodd" clip-rule="evenodd" d="M32.3694 5.4127V4.14175C32.3694 3.9494 32.5157 3.82036 32.6912 3.82036H38.388C38.5708 3.82036 38.717 3.95184 38.717 4.14175V5.2301C38.7146 5.4127 38.561 5.65131 38.288 6.0287L35.336 10.2384C36.433 10.2117 37.5909 10.3748 38.5854 10.9348C38.8097 11.0614 38.8706 11.2464 38.8877 11.429V12.7852C38.8877 12.9703 38.6829 13.187 38.4684 13.075C36.7157 12.157 34.3878 12.0572 32.4499 13.0847C32.2524 13.1918 32.0452 12.9776 32.0452 12.7925V11.5045C32.0452 11.2976 32.0476 10.9445 32.2548 10.6304L35.6749 5.73166H32.6985C32.5157 5.73166 32.3694 5.60262 32.3694 5.4127Z" fill="#383838"/>
<path fill-rule="evenodd" clip-rule="evenodd" d="M11.5885 13.3428H9.85537C9.68961 13.3306 9.55798 13.2064 9.54579 13.0482V4.16366C9.54579 3.98592 9.69449 3.84471 9.87975 3.84471H11.4959C11.6641 3.852 11.7982 3.98105 11.8104 4.14175V5.30314H11.8421C12.2638 4.1807 13.056 3.65723 14.1237 3.65723C15.2084 3.65723 15.8861 4.1807 16.3736 5.30314C16.7929 4.1807 17.746 3.65723 18.7674 3.65723C19.4938 3.65723 20.2885 3.9567 20.7736 4.6287C21.322 5.37618 21.2099 6.46209 21.2099 7.41409L21.2075 13.0214C21.2075 13.1991 21.0588 13.3428 20.8735 13.3428H19.1428C18.9697 13.3306 18.8308 13.1918 18.8308 13.0214V8.31253C18.8308 7.93757 18.8649 7.00262 18.782 6.64714C18.6528 6.05062 18.2652 5.88262 17.7631 5.88262C17.3438 5.88262 16.905 6.16262 16.7271 6.61062C16.5491 7.05862 16.5662 7.80853 16.5662 8.31253V13.0214C16.5662 13.1991 16.4175 13.3428 16.2322 13.3428H14.5015C14.326 13.3306 14.1895 13.1918 14.1895 13.0214L14.1871 8.31253C14.1871 7.32157 14.3504 5.86314 13.1194 5.86314C11.8737 5.86314 11.9225 7.28505 11.9225 8.31253V13.0214C11.9225 13.1991 11.7738 13.3428 11.5885 13.3428Z" fill="#383838"/>
<path fill-rule="evenodd" clip-rule="evenodd" d="M43.6216 3.65723C46.1933 3.65723 47.5852 5.86314 47.5852 8.668C47.5852 11.3779 46.0471 13.5278 43.6216 13.5278C41.0962 13.5278 39.7214 11.3219 39.7214 8.57305C39.7214 5.80714 41.1133 3.65723 43.6216 3.65723ZM43.6362 5.47114C42.3589 5.47114 42.2785 7.20957 42.2785 8.29305C42.2785 9.37896 42.2614 11.6969 43.6216 11.6969C44.9648 11.6969 45.0281 9.82696 45.0281 8.68748C45.0281 7.93757 44.9965 7.04157 44.7697 6.33062C44.5747 5.71218 44.1872 5.47114 43.6362 5.47114Z" fill="#383838"/>
<path fill-rule="evenodd" clip-rule="evenodd" d="M50.9199 13.3428H49.1941C49.021 13.3306 48.8821 13.1918 48.8821 13.0214L48.8796 4.13444C48.8943 3.97131 49.0381 3.84471 49.2136 3.84471H50.82C50.9711 3.852 51.0955 3.95427 51.1296 4.09305V5.45166H51.1613C51.6464 4.2367 52.3265 3.65723 53.5233 3.65723C54.301 3.65723 55.0591 3.93723 55.5466 4.70418C56 5.41514 56 6.61062 56 7.47009V13.0628C55.9805 13.2186 55.8367 13.3428 55.666 13.3428H53.928C53.7696 13.3306 53.6379 13.2137 53.6209 13.0628V8.23705C53.6209 7.26557 53.733 5.84366 52.5361 5.84366C52.1144 5.84366 51.7268 6.12609 51.5342 6.55461C51.2905 7.09757 51.2588 7.63809 51.2588 8.23705V13.0214C51.2563 13.1991 51.1052 13.3428 50.9199 13.3428Z" fill="#383838"/>
<path fill-rule="evenodd" clip-rule="evenodd" d="M27.8282 9.09897C27.8282 9.77341 27.8452 10.3358 27.504 10.9348C27.2285 11.4218 26.7897 11.7212 26.3046 11.7212C25.6392 11.7212 25.2491 11.2148 25.2491 10.4673C25.2491 8.99184 26.5728 8.72402 27.8282 8.72402V9.09897ZM29.576 13.3184C29.4614 13.4207 29.2956 13.428 29.1664 13.3598C28.5911 12.8826 28.4863 12.6611 28.1719 12.2058C27.2212 13.1748 26.546 13.4645 25.3149 13.4645C23.8548 13.4645 22.7213 12.5661 22.7213 10.7668C22.7213 9.36193 23.4818 8.40506 24.569 7.93758C25.51 7.52367 26.8239 7.45063 27.8282 7.33619V7.11219C27.8282 6.70071 27.8599 6.21376 27.6161 5.85828C27.4064 5.53932 27.0018 5.40785 26.6435 5.40785C25.9829 5.40785 25.3954 5.74628 25.2516 6.4475C25.2223 6.60332 25.1078 6.75672 24.9493 6.76402L23.2698 6.58384C23.1284 6.55219 22.9699 6.43776 23.0114 6.22106C23.3965 4.18559 25.2394 3.57202 26.8872 3.57202C27.7307 3.57202 28.8325 3.79602 29.4979 4.43393C30.3414 5.22037 30.2609 6.26976 30.2609 7.41167V10.1094C30.2609 10.9202 30.5973 11.2757 30.9142 11.7139C31.0239 11.8698 31.0483 12.0572 30.9069 12.1741C30.5534 12.4687 29.9245 13.0165 29.5784 13.3233L29.576 13.3184Z" fill="#383838"/>
<path fill-rule="evenodd" clip-rule="evenodd" d="M5.10686 9.09896C5.10686 9.77339 5.12393 10.3358 4.78266 10.9348C4.5072 11.4217 4.07086 11.7212 3.58334 11.7212C2.91786 11.7212 2.53027 11.2148 2.53027 10.4673C2.53027 8.99183 3.85391 8.724 5.10686 8.724V9.09896ZM6.85465 13.3184C6.74008 13.4207 6.57432 13.428 6.44513 13.3598C5.86985 12.8826 5.76746 12.661 5.45057 12.2057C4.49989 13.1748 3.8271 13.4645 2.59365 13.4645C1.13594 13.4645 0 12.5661 0 10.7668C0 9.36192 0.762982 8.40505 1.84773 7.93757C2.78866 7.52365 4.10255 7.45061 5.10686 7.33618V7.11218C5.10686 6.7007 5.13855 6.21374 4.89723 5.85827C4.68515 5.53931 4.2805 5.40783 3.92461 5.40783C3.26401 5.40783 2.67409 5.74627 2.53027 6.44748C2.50102 6.60331 2.38645 6.7567 2.23044 6.764L0.54847 6.58383C0.407086 6.55218 0.251077 6.43774 0.290079 6.22105C0.677665 4.18557 2.51808 3.57201 4.16593 3.57201C5.00936 3.57201 6.11117 3.79601 6.77665 4.43392C7.62007 5.22035 7.53963 6.26974 7.53963 7.41166V10.1094C7.53963 10.9202 7.87603 11.2757 8.19292 11.7139C8.30505 11.8697 8.32943 12.0572 8.18804 12.1741C7.83458 12.4687 7.20567 13.0165 6.85953 13.3233L6.85465 13.3184Z" fill="#383838"/>
</g>
<defs>
<clipPath id="clip0_160_7372">
<rect width="56" height="16.856" fill="white" transform="translate(0 3.57201)"/>
</clipPath>
</defs>
</svg>
