<svg width="34" height="34" viewBox="0 0 34 34" fill="none" xmlns="http://www.w3.org/2000/svg">
<g clip-path="url(#clip0_301_6999)">
<path d="M16.5278 33.0556C25.6559 33.0556 33.0556 25.6559 33.0556 16.5278C33.0556 7.39975 25.6559 0 16.5278 0C7.39975 0 0 7.39975 0 16.5278C0 25.6559 7.39975 33.0556 16.5278 33.0556Z" fill="#F0F0F0"/>
<path d="M22.828 10.238C22.438 9.84805 21.808 9.84805 21.418 10.238L16.528 15.118L11.638 10.228C11.248 9.83805 10.618 9.83805 10.228 10.228C9.83806 10.618 9.83806 11.248 10.228 11.638L15.118 16.528L10.228 21.418C9.83806 21.808 9.83806 22.438 10.228 22.828C10.618 23.218 11.248 23.218 11.638 22.828L16.528 17.938L21.418 22.828C21.808 23.218 22.438 23.218 22.828 22.828C23.218 22.438 23.218 21.808 22.828 21.418L17.938 16.528L22.828 11.638C23.208 11.258 23.208 10.618 22.828 10.238Z" fill="black"/>
</g>
<defs>
<clipPath id="clip0_301_6999">
<rect width="34" height="34" fill="white"/>
</clipPath>
</defs>
</svg>
