<svg width="55" height="19" viewBox="0 0 55 19" fill="none" xmlns="http://www.w3.org/2000/svg">
<path fill-rule="evenodd" clip-rule="evenodd" d="M0 9.92158C0 14.6872 4.05132 18.3908 8.76251 18.3908C13.6936 18.3908 17.6895 14.4128 17.6895 9.55499C17.6895 6.71341 16.3147 4.22061 14.2802 2.55211L12.795 5.11823C14.0236 6.16353 14.8667 7.77652 14.8667 9.59165C14.8667 12.8909 12.1351 15.6042 8.76251 15.6042C5.4077 15.6042 2.67609 12.8915 2.67609 9.5C2.67609 9.09676 2.71275 8.69351 2.78607 8.30807L0 9.92158ZM11.5119 1.0491C10.6688 0.737498 9.91726 0.609192 9.16575 0.609192C8.59754 0.609192 8.10265 0.68251 7.73606 0.755827L5.8298 4.05512C6.52632 3.65187 7.42446 3.43192 8.39592 3.43192C8.96413 3.43192 9.47735 3.50524 10.0089 3.65187L11.5119 1.0491Z" fill="#383A41"/>
<path fill-rule="evenodd" clip-rule="evenodd" d="M25.2087 6.29026C24.5247 6.29026 23.9041 6.51388 23.4281 6.92498L23.2893 6.4369H22.0963V12.5144H23.6156V9.21092C23.6156 8.50393 24.089 7.78699 24.9945 7.78699C25.703 7.78699 26.1257 8.28555 26.1257 9.12137V12.5144H27.6454V9.00825C27.6454 7.33189 26.7117 6.29026 25.2087 6.29026ZM44.5174 9.33451C44.5174 10.3102 43.8806 11.0182 43.0039 11.0182C42.1262 11.0182 41.4894 10.3102 41.4894 9.33451C41.4894 8.35939 42.1262 7.65187 43.0034 7.65187C43.8806 7.65187 44.5174 8.35939 44.5174 9.33451ZM43.0039 6.15567C41.2899 6.15567 39.9476 7.55185 39.9476 9.33451C39.9476 11.1177 41.2899 12.5144 43.0034 12.5144C44.7169 12.5144 46.0597 11.1177 46.0597 9.33451C46.0597 7.55185 44.7175 6.15567 43.0039 6.15567ZM35.4512 9.33451C35.4512 10.3102 34.8143 11.0182 33.9377 11.0182C33.06 11.0182 32.4231 10.3102 32.4231 9.33451C32.4231 8.35939 33.06 7.65187 33.9371 7.65187C34.8143 7.65187 35.4512 8.35939 35.4512 9.33451ZM33.9377 6.15567C32.2236 6.15567 30.8814 7.55185 30.8814 9.33451C30.8814 11.1177 32.2236 12.5144 33.9371 12.5144C35.6507 12.5144 36.9929 11.1177 36.9929 9.33451C36.9929 7.55185 35.6512 6.15567 33.9377 6.15567ZM52.4074 6.29026C51.7235 6.29026 51.1034 6.51388 50.6269 6.92498L50.4886 6.4369H49.2951V12.5144H50.8149V9.21092C50.8149 8.50393 51.2883 7.78699 52.1938 7.78699C52.9023 7.78699 53.3249 8.28555 53.3249 9.12137V12.5144H54.8447V9.00825C54.8447 7.33189 53.911 6.29026 52.4074 6.29026Z" fill="#383838"/>
</svg>
